<svg width="900" height="600" viewBox="0 0 900 600" fill="none" xmlns="http://www.w3.org/2000/svg">
<g clip-path="url(#clip0_10_11)">
<rect width="900" height="600" fill="#0A0A0A"/>
<path d="M828.359 64.864L851.079 74.208L849.415 79.136L821.767 67.424V62.304L849.415 50.592L851.079 55.52L828.359 64.864ZM857.892 55.52L859.556 50.592L887.204 62.304V67.424L859.556 79.136L857.892 74.208L880.612 64.864L857.892 55.52Z" fill="#1F1E1E"/>
<path d="M828.078 379.864L850.798 389.208L849.134 394.136L821.486 382.424V377.304L849.134 365.592L850.798 370.52L828.078 379.864ZM858.763 410.84H852.683L874.379 348.888H880.331L858.763 410.84ZM882.173 370.52L883.837 365.592L911.485 377.304V382.424L883.837 394.136L882.173 389.208L904.893 379.864L882.173 370.52Z" fill="#1F1E1E"/>
<path d="M412.359 180.864L435.079 190.208L433.415 195.136L405.767 183.424V178.304L433.415 166.592L435.079 171.52L412.359 180.864ZM441.892 171.52L443.556 166.592L471.204 178.304V183.424L443.556 195.136L441.892 190.208L464.612 180.864L441.892 171.52Z" fill="#1F1E1E"/>
<path d="M53.0778 275.864L75.7978 285.208L74.1338 290.136L46.4858 278.424V273.304L74.1338 261.592L75.7978 266.52L53.0778 275.864ZM83.7628 306.84H77.6827L99.3788 244.888H105.331L83.7628 306.84ZM107.173 266.52L108.837 261.592L136.485 273.304V278.424L108.837 290.136L107.173 285.208L129.893 275.864L107.173 266.52Z" fill="#1F1E1E"/>
<path d="M115.332 535.36H125.7L127.94 523.648H133.316L131.076 535.36H136.708V540.096H130.116L127.94 551.552H136.708V556.288H127.044L124.804 568H119.428L121.668 556.288H111.3L109.06 568H103.684L105.924 556.288H100.292V551.552H106.82L108.996 540.096H100.292V535.36H109.956L112.196 523.648H117.572L115.332 535.36ZM112.196 551.552H122.564L124.804 540.096H114.436L112.196 551.552Z" fill="#1F1E1E"/>
<path d="M28.3323 29.36H38.7003L40.9403 17.648H46.3162L44.0763 29.36H49.7083V34.096H43.1163L40.9403 45.552H49.7083V50.288H40.0443L37.8043 62H32.4283L34.6683 50.288H24.3003L22.0603 62H16.6843L18.9243 50.288H13.2923V45.552H19.8203L21.9963 34.096H13.2923V29.36H22.9563L25.1963 17.648H30.5723L28.3323 29.36ZM25.1963 45.552H35.5643L37.8043 34.096H27.4363L25.1963 45.552Z" fill="#1F1E1E"/>
<path d="M719.381 549.92C720.149 549.92 720.805 549.792 721.349 549.536C721.893 549.248 722.341 548.896 722.693 548.48C723.077 548.032 723.349 547.536 723.509 546.992C723.701 546.416 723.797 545.84 723.797 545.264V536.624C723.797 535.312 723.941 534.144 724.229 533.12C724.517 532.096 725.013 531.248 725.717 530.576C726.421 529.872 727.349 529.344 728.501 528.992C729.685 528.608 731.141 528.416 732.869 528.416H733.061V531.92C731.237 531.92 729.925 532.256 729.125 532.928C728.357 533.568 727.973 534.816 727.973 536.672V544.064C727.973 546.176 727.685 547.808 727.109 548.96C726.565 550.112 725.781 551.008 724.757 551.648C725.781 552.288 726.565 553.184 727.109 554.336C727.685 555.488 727.973 557.12 727.973 559.232V566.624C727.973 568.48 728.357 569.728 729.125 570.368C729.925 571.04 731.237 571.376 733.061 571.376V574.88H732.869C731.141 574.88 729.685 574.704 728.501 574.352C727.349 574 726.421 573.472 725.717 572.768C725.013 572.064 724.517 571.2 724.229 570.176C723.941 569.152 723.797 567.984 723.797 566.672V558.032C723.797 557.456 723.701 556.896 723.509 556.352C723.349 555.776 723.077 555.28 722.693 554.864C722.341 554.416 721.893 554.064 721.349 553.808C720.805 553.52 720.149 553.376 719.381 553.376V549.92ZM758.619 553.376C757.851 553.376 757.195 553.52 756.651 553.808C756.107 554.064 755.643 554.416 755.259 554.864C754.907 555.28 754.635 555.776 754.443 556.352C754.283 556.896 754.203 557.456 754.203 558.032V566.672C754.203 567.984 754.059 569.152 753.771 570.176C753.483 571.2 752.987 572.064 752.283 572.768C751.579 573.472 750.635 574 749.451 574.352C748.299 574.704 746.859 574.88 745.131 574.88H744.939V571.376C746.763 571.376 748.059 571.04 748.827 570.368C749.627 569.728 750.027 568.48 750.027 566.624V559.232C750.027 557.12 750.299 555.488 750.843 554.336C751.419 553.184 752.219 552.288 753.243 551.648C752.219 551.008 751.419 550.112 750.843 548.96C750.299 547.808 750.027 546.176 750.027 544.064V536.672C750.027 534.816 749.627 533.568 748.827 532.928C748.059 532.256 746.763 531.92 744.939 531.92V528.416H745.131C746.859 528.416 748.299 528.608 749.451 528.992C750.635 529.344 751.579 529.872 752.283 530.576C752.987 531.248 753.483 532.096 753.771 533.12C754.059 534.144 754.203 535.312 754.203 536.624V545.264C754.203 545.84 754.283 546.416 754.443 546.992C754.635 547.536 754.907 548.032 755.259 548.48C755.643 548.896 756.107 549.248 756.651 549.536C757.195 549.792 757.851 549.92 758.619 549.92V553.376Z" fill="#1F1E1E"/>
<path d="M484.732 40.84H478.651L500.348 -21.112H506.3L484.732 40.84ZM522.99 -14.84C522.99 -13.048 522.819 -11.32 522.478 -9.656C522.179 -8.03467 521.859 -6.34934 521.518 -4.6C523.054 -5.45333 524.569 -6.28533 526.062 -7.096C527.555 -7.90667 529.177 -8.61067 530.926 -9.208L531.31 -9.336L533.102 -3.96L532.59 -3.768C530.883 -3.128 529.177 -2.70133 527.47 -2.488C525.763 -2.31734 524.014 -2.168 522.222 -2.04C523.63 -0.845334 524.953 0.327999 526.19 1.48C527.427 2.58933 528.579 3.89067 529.646 5.384L529.966 5.832L525.294 9.096L525.038 8.712C524.014 7.176 523.118 5.66133 522.35 4.168C521.625 2.632 520.878 1.05333 520.11 -0.568001C519.342 1.05333 518.574 2.632 517.806 4.168C517.081 5.66133 516.206 7.176 515.182 8.712L514.926 9.096L510.254 5.832L510.574 5.384C511.641 3.89067 512.793 2.58933 514.03 1.48C515.267 0.327999 516.59 -0.845334 517.998 -2.04C516.206 -2.168 514.457 -2.31734 512.75 -2.488C511.043 -2.70133 509.337 -3.128 507.63 -3.768L507.118 -3.96L508.91 -9.336L509.294 -9.208C511.043 -8.61067 512.665 -7.90667 514.158 -7.096C515.651 -6.28533 517.166 -5.45333 518.702 -4.6C518.361 -6.34934 518.019 -8.03467 517.678 -9.656C517.379 -11.32 517.23 -13.048 517.23 -14.84V-15.352H522.99V-14.84ZM553.74 -14.84C553.74 -13.048 553.569 -11.32 553.228 -9.656C552.929 -8.03467 552.609 -6.34934 552.268 -4.6C553.804 -5.45333 555.319 -6.28533 556.812 -7.096C558.305 -7.90667 559.927 -8.61067 561.676 -9.208L562.06 -9.336L563.852 -3.96L563.34 -3.768C561.633 -3.128 559.927 -2.70133 558.22 -2.488C556.513 -2.31734 554.764 -2.168 552.972 -2.04C554.38 -0.845334 555.703 0.327999 556.94 1.48C558.177 2.58933 559.329 3.89067 560.396 5.384L560.716 5.832L556.044 9.096L555.788 8.712C554.764 7.176 553.868 5.66133 553.1 4.168C552.375 2.632 551.628 1.05333 550.86 -0.568001C550.092 1.05333 549.324 2.632 548.556 4.168C547.831 5.66133 546.956 7.176 545.932 8.712L545.676 9.096L541.004 5.832L541.324 5.384C542.391 3.89067 543.543 2.58933 544.78 1.48C546.017 0.327999 547.34 -0.845334 548.748 -2.04C546.956 -2.168 545.207 -2.31734 543.5 -2.488C541.793 -2.70133 540.087 -3.128 538.38 -3.768L537.868 -3.96L539.66 -9.336L540.044 -9.208C541.793 -8.61067 543.415 -7.90667 544.908 -7.096C546.401 -6.28533 547.916 -5.45333 549.452 -4.6C549.111 -6.34934 548.769 -8.03467 548.428 -9.656C548.129 -11.32 547.98 -13.048 547.98 -14.84V-15.352H553.74V-14.84ZM570.794 40.84H564.714L586.41 -21.112H592.362L570.794 40.84Z" fill="#1F1E1E"/>
<path d="M400.424 472.88H395.864L412.136 426.416H416.6L400.424 472.88ZM429.118 431.12C429.118 432.464 428.99 433.76 428.734 435.008C428.51 436.224 428.27 437.488 428.014 438.8C429.166 438.16 430.302 437.536 431.422 436.928C432.542 436.32 433.758 435.792 435.07 435.344L435.358 435.248L436.702 439.28L436.318 439.424C435.038 439.904 433.758 440.224 432.478 440.384C431.198 440.512 429.886 440.624 428.542 440.72C429.598 441.616 430.59 442.496 431.518 443.36C432.446 444.192 433.31 445.168 434.11 446.288L434.35 446.624L430.846 449.072L430.654 448.784C429.886 447.632 429.214 446.496 428.638 445.376C428.094 444.224 427.534 443.04 426.958 441.824C426.382 443.04 425.806 444.224 425.23 445.376C424.686 446.496 424.03 447.632 423.262 448.784L423.07 449.072L419.566 446.624L419.806 446.288C420.606 445.168 421.47 444.192 422.398 443.36C423.326 442.496 424.318 441.616 425.374 440.72C424.03 440.624 422.718 440.512 421.438 440.384C420.158 440.224 418.878 439.904 417.598 439.424L417.214 439.28L418.558 435.248L418.846 435.344C420.158 435.792 421.374 436.32 422.493 436.928C423.614 437.536 424.75 438.16 425.902 438.8C425.646 437.488 425.39 436.224 425.134 435.008C424.91 433.76 424.798 432.464 424.798 431.12V430.736H429.118V431.12ZM452.18 431.12C452.18 432.464 452.052 433.76 451.796 435.008C451.572 436.224 451.332 437.488 451.076 438.8C452.228 438.16 453.364 437.536 454.484 436.928C455.604 436.32 456.82 435.792 458.132 435.344L458.42 435.248L459.764 439.28L459.38 439.424C458.1 439.904 456.82 440.224 455.54 440.384C454.26 440.512 452.948 440.624 451.604 440.72C452.66 441.616 453.652 442.496 454.58 443.36C455.508 444.192 456.372 445.168 457.172 446.288L457.412 446.624L453.908 449.072L453.716 448.784C452.948 447.632 452.276 446.496 451.7 445.376C451.156 444.224 450.596 443.04 450.02 441.824C449.444 443.04 448.868 444.224 448.292 445.376C447.748 446.496 447.092 447.632 446.324 448.784L446.132 449.072L442.628 446.624L442.868 446.288C443.668 445.168 444.532 444.192 445.46 443.36C446.388 442.496 447.38 441.616 448.436 440.72C447.092 440.624 445.78 440.512 444.5 440.384C443.22 440.224 441.94 439.904 440.66 439.424L440.276 439.28L441.62 435.248L441.908 435.344C443.22 435.792 444.436 436.32 445.556 436.928C446.676 437.536 447.812 438.16 448.964 438.8C448.708 437.488 448.452 436.224 448.196 435.008C447.972 433.76 447.86 432.464 447.86 431.12V430.736H452.18V431.12ZM464.971 472.88H460.41L476.683 426.416H481.147L464.971 472.88Z" fill="#1F1E1E"/>
<path d="M167.424 124.88H162.864L179.136 78.416H183.6L167.424 124.88ZM196.118 83.12C196.118 84.464 195.99 85.76 195.734 87.008C195.51 88.224 195.27 89.488 195.014 90.8C196.166 90.16 197.302 89.536 198.422 88.928C199.542 88.32 200.758 87.792 202.07 87.344L202.358 87.248L203.702 91.28L203.318 91.424C202.038 91.904 200.758 92.224 199.478 92.384C198.198 92.512 196.886 92.624 195.542 92.72C196.598 93.616 197.59 94.496 198.518 95.36C199.446 96.192 200.31 97.168 201.11 98.288L201.35 98.624L197.846 101.072L197.654 100.784C196.886 99.632 196.214 98.496 195.638 97.376C195.094 96.224 194.534 95.04 193.958 93.824C193.382 95.04 192.806 96.224 192.23 97.376C191.686 98.496 191.03 99.632 190.262 100.784L190.07 101.072L186.566 98.624L186.806 98.288C187.606 97.168 188.47 96.192 189.398 95.36C190.326 94.496 191.318 93.616 192.374 92.72C191.03 92.624 189.718 92.512 188.438 92.384C187.158 92.224 185.878 91.904 184.598 91.424L184.214 91.28L185.558 87.248L185.846 87.344C187.158 87.792 188.374 88.32 189.493 88.928C190.614 89.536 191.75 90.16 192.902 90.8C192.646 89.488 192.39 88.224 192.134 87.008C191.91 85.76 191.798 84.464 191.798 83.12V82.736H196.118V83.12ZM219.18 83.12C219.18 84.464 219.052 85.76 218.796 87.008C218.572 88.224 218.332 89.488 218.076 90.8C219.228 90.16 220.364 89.536 221.484 88.928C222.604 88.32 223.82 87.792 225.132 87.344L225.42 87.248L226.764 91.28L226.38 91.424C225.1 91.904 223.82 92.224 222.54 92.384C221.26 92.512 219.948 92.624 218.604 92.72C219.66 93.616 220.652 94.496 221.58 95.36C222.508 96.192 223.372 97.168 224.172 98.288L224.412 98.624L220.908 101.072L220.716 100.784C219.948 99.632 219.276 98.496 218.7 97.376C218.156 96.224 217.596 95.04 217.02 93.824C216.444 95.04 215.868 96.224 215.292 97.376C214.748 98.496 214.092 99.632 213.324 100.784L213.132 101.072L209.628 98.624L209.868 98.288C210.668 97.168 211.532 96.192 212.46 95.36C213.388 94.496 214.38 93.616 215.436 92.72C214.092 92.624 212.78 92.512 211.5 92.384C210.22 92.224 208.94 91.904 207.66 91.424L207.276 91.28L208.62 87.248L208.908 87.344C210.22 87.792 211.436 88.32 212.556 88.928C213.676 89.536 214.812 90.16 215.964 90.8C215.708 89.488 215.452 88.224 215.196 87.008C214.972 85.76 214.86 84.464 214.86 83.12V82.736H219.18V83.12ZM231.971 124.88H227.41L243.683 78.416H248.147L231.971 124.88Z" fill="#1F1E1E"/>
<path d="M-26.2685 466.84H-32.3485L-10.6525 404.888H-4.7005L-26.2685 466.84ZM11.99 411.16C11.99 412.952 11.8193 414.68 11.478 416.344C11.1793 417.965 10.8593 419.651 10.518 421.4C12.054 420.547 13.5687 419.715 15.062 418.904C16.5553 418.093 18.1767 417.389 19.926 416.792L20.31 416.664L22.102 422.04L21.59 422.232C19.8833 422.872 18.1767 423.299 16.47 423.512C14.7633 423.683 13.014 423.832 11.222 423.96C12.63 425.155 13.9527 426.328 15.19 427.48C16.4273 428.589 17.5793 429.891 18.646 431.384L18.966 431.832L14.294 435.096L14.038 434.712C13.014 433.176 12.118 431.661 11.35 430.168C10.6247 428.632 9.878 427.053 9.11 425.432C8.342 427.053 7.574 428.632 6.806 430.168C6.08067 431.661 5.206 433.176 4.182 434.712L3.926 435.096L-0.746 431.832L-0.426 431.384C0.640667 429.891 1.79267 428.589 3.03 427.48C4.26733 426.328 5.59 425.155 6.998 423.96C5.206 423.832 3.45667 423.683 1.75 423.512C0.0433334 423.299 -1.66333 422.872 -3.37 422.232L-3.882 422.04L-2.09 416.664L-1.706 416.792C0.0433335 417.389 1.66467 418.093 3.158 418.904C4.65133 419.715 6.166 420.547 7.702 421.4C7.36067 419.651 7.01933 417.965 6.678 416.344C6.37933 414.68 6.23 412.952 6.23 411.16V410.648H11.99V411.16ZM42.74 411.16C42.74 412.952 42.5693 414.68 42.228 416.344C41.9293 417.965 41.6093 419.651 41.268 421.4C42.804 420.547 44.3187 419.715 45.812 418.904C47.3053 418.093 48.9267 417.389 50.676 416.792L51.06 416.664L52.852 422.04L52.34 422.232C50.6333 422.872 48.9267 423.299 47.22 423.512C45.5133 423.683 43.764 423.832 41.972 423.96C43.38 425.155 44.7027 426.328 45.94 427.48C47.1773 428.589 48.3293 429.891 49.396 431.384L49.716 431.832L45.044 435.096L44.788 434.712C43.764 433.176 42.868 431.661 42.1 430.168C41.3747 428.632 40.628 427.053 39.86 425.432C39.092 427.053 38.324 428.632 37.556 430.168C36.8307 431.661 35.956 433.176 34.932 434.712L34.676 435.096L30.004 431.832L30.324 431.384C31.3907 429.891 32.5427 428.589 33.78 427.48C35.0173 426.328 36.34 425.155 37.748 423.96C35.956 423.832 34.2067 423.683 32.5 423.512C30.7933 423.299 29.0867 422.872 27.38 422.232L26.868 422.04L28.66 416.664L29.044 416.792C30.7933 417.389 32.4147 418.093 33.908 418.904C35.4013 419.715 36.916 420.547 38.452 421.4C38.1107 419.651 37.7693 417.965 37.428 416.344C37.1293 414.68 36.98 412.952 36.98 411.16V410.648H42.74V411.16ZM59.794 466.84H53.714L75.41 404.888H81.362L59.794 466.84Z" fill="#1F1E1E"/>
<path d="M576.841 347.56C577.865 347.56 578.74 347.389 579.465 347.048C580.191 346.664 580.788 346.195 581.257 345.64C581.769 345.043 582.132 344.381 582.345 343.656C582.601 342.888 582.729 342.12 582.729 341.352V329.832C582.729 328.083 582.921 326.525 583.305 325.16C583.689 323.795 584.351 322.664 585.289 321.768C586.228 320.829 587.465 320.125 589.001 319.656C590.58 319.144 592.521 318.888 594.825 318.888H595.081V323.56C592.649 323.56 590.9 324.008 589.833 324.904C588.809 325.757 588.297 327.421 588.297 329.896V339.752C588.297 342.568 587.913 344.744 587.145 346.28C586.42 347.816 585.375 349.011 584.009 349.864C585.375 350.717 586.42 351.912 587.145 353.448C587.913 354.984 588.297 357.16 588.297 359.976V369.832C588.297 372.307 588.809 373.971 589.833 374.824C590.9 375.72 592.649 376.168 595.081 376.168V380.84H594.825C592.521 380.84 590.58 380.605 589.001 380.136C587.465 379.667 586.228 378.963 585.289 378.024C584.351 377.085 583.689 375.933 583.305 374.568C582.921 373.203 582.729 371.645 582.729 369.896V358.376C582.729 357.608 582.601 356.861 582.345 356.136C582.132 355.368 581.769 354.707 581.257 354.152C580.788 353.555 580.191 353.085 579.465 352.744C578.74 352.36 577.865 352.168 576.841 352.168V347.56ZM629.158 352.168C628.134 352.168 627.26 352.36 626.534 352.744C625.809 353.085 625.19 353.555 624.678 354.152C624.209 354.707 623.846 355.368 623.59 356.136C623.377 356.861 623.27 357.608 623.27 358.376V369.896C623.27 371.645 623.078 373.203 622.694 374.568C622.31 375.933 621.649 377.085 620.71 378.024C619.772 378.963 618.513 379.667 616.934 380.136C615.398 380.605 613.478 380.84 611.174 380.84H610.918V376.168C613.35 376.168 615.078 375.72 616.102 374.824C617.169 373.971 617.702 372.307 617.702 369.832V359.976C617.702 357.16 618.065 354.984 618.79 353.448C619.558 351.912 620.625 350.717 621.99 349.864C620.625 349.011 619.558 347.816 618.79 346.28C618.065 344.744 617.702 342.568 617.702 339.752V329.896C617.702 327.421 617.169 325.757 616.102 324.904C615.078 324.008 613.35 323.56 610.918 323.56V318.888H611.174C613.478 318.888 615.398 319.144 616.934 319.656C618.513 320.125 619.772 320.829 620.71 321.768C621.649 322.664 622.31 323.795 622.694 325.16C623.078 326.525 623.27 328.083 623.27 329.832V341.352C623.27 342.12 623.377 342.888 623.59 343.656C623.846 344.381 624.209 345.043 624.678 345.64C625.19 346.195 625.809 346.664 626.534 347.048C627.26 347.389 628.134 347.56 629.158 347.56V352.168Z" fill="#1F1E1E"/>
<path d="M277.841 311.56C278.865 311.56 279.74 311.389 280.465 311.048C281.191 310.664 281.788 310.195 282.257 309.64C282.769 309.043 283.132 308.381 283.345 307.656C283.601 306.888 283.729 306.12 283.729 305.352V293.832C283.729 292.083 283.921 290.525 284.305 289.16C284.689 287.795 285.351 286.664 286.289 285.768C287.228 284.829 288.465 284.125 290.001 283.656C291.58 283.144 293.521 282.888 295.825 282.888H296.081V287.56C293.649 287.56 291.9 288.008 290.833 288.904C289.809 289.757 289.297 291.421 289.297 293.896V303.752C289.297 306.568 288.913 308.744 288.145 310.28C287.42 311.816 286.375 313.011 285.009 313.864C286.375 314.717 287.42 315.912 288.145 317.448C288.913 318.984 289.297 321.16 289.297 323.976V333.832C289.297 336.307 289.809 337.971 290.833 338.824C291.9 339.72 293.649 340.168 296.081 340.168V344.84H295.825C293.521 344.84 291.58 344.605 290.001 344.136C288.465 343.667 287.228 342.963 286.289 342.024C285.351 341.085 284.689 339.933 284.305 338.568C283.921 337.203 283.729 335.645 283.729 333.896V322.376C283.729 321.608 283.601 320.861 283.345 320.136C283.132 319.368 282.769 318.707 282.257 318.152C281.788 317.555 281.191 317.085 280.465 316.744C279.74 316.36 278.865 316.168 277.841 316.168V311.56ZM330.158 316.168C329.134 316.168 328.26 316.36 327.534 316.744C326.809 317.085 326.19 317.555 325.678 318.152C325.209 318.707 324.846 319.368 324.59 320.136C324.377 320.861 324.27 321.608 324.27 322.376V333.896C324.27 335.645 324.078 337.203 323.694 338.568C323.31 339.933 322.649 341.085 321.71 342.024C320.772 342.963 319.513 343.667 317.934 344.136C316.398 344.605 314.478 344.84 312.174 344.84H311.918V340.168C314.35 340.168 316.078 339.72 317.102 338.824C318.169 337.971 318.702 336.307 318.702 333.832V323.976C318.702 321.16 319.065 318.984 319.79 317.448C320.558 315.912 321.625 314.717 322.99 313.864C321.625 313.011 320.558 311.816 319.79 310.28C319.065 308.744 318.702 306.568 318.702 303.752V293.896C318.702 291.421 318.169 289.757 317.102 288.904C316.078 288.008 314.35 287.56 311.918 287.56V282.888H312.174C314.478 282.888 316.398 283.144 317.934 283.656C319.513 284.125 320.772 284.829 321.71 285.768C322.649 286.664 323.31 287.795 323.694 289.16C324.078 290.525 324.27 292.083 324.27 293.832V305.352C324.27 306.12 324.377 306.888 324.59 307.656C324.846 308.381 325.209 309.043 325.678 309.64C326.19 310.195 326.809 310.664 327.534 311.048C328.26 311.389 329.134 311.56 330.158 311.56V316.168Z" fill="#1F1E1E"/>
<path d="M631.246 143.58C632.078 143.58 632.789 143.441 633.378 143.164C633.967 142.852 634.453 142.471 634.834 142.02C635.25 141.535 635.545 140.997 635.718 140.408C635.926 139.784 636.03 139.16 636.03 138.536V129.176C636.03 127.755 636.186 126.489 636.498 125.38C636.81 124.271 637.347 123.352 638.11 122.624C638.873 121.861 639.878 121.289 641.126 120.908C642.409 120.492 643.986 120.284 645.858 120.284H646.066V124.08C644.09 124.08 642.669 124.444 641.802 125.172C640.97 125.865 640.554 127.217 640.554 129.228V137.236C640.554 139.524 640.242 141.292 639.618 142.54C639.029 143.788 638.179 144.759 637.07 145.452C638.179 146.145 639.029 147.116 639.618 148.364C640.242 149.612 640.554 151.38 640.554 153.668V161.676C640.554 163.687 640.97 165.039 641.802 165.732C642.669 166.46 644.09 166.824 646.066 166.824V170.62H645.858C643.986 170.62 642.409 170.429 641.126 170.048C639.878 169.667 638.873 169.095 638.11 168.332C637.347 167.569 636.81 166.633 636.498 165.524C636.186 164.415 636.03 163.149 636.03 161.728V152.368C636.03 151.744 635.926 151.137 635.718 150.548C635.545 149.924 635.25 149.387 634.834 148.936C634.453 148.451 633.967 148.069 633.378 147.792C632.789 147.48 632.078 147.324 631.246 147.324V143.58ZM673.754 147.324C672.922 147.324 672.211 147.48 671.622 147.792C671.032 148.069 670.53 148.451 670.114 148.936C669.732 149.387 669.438 149.924 669.23 150.548C669.056 151.137 668.97 151.744 668.97 152.368V161.728C668.97 163.149 668.814 164.415 668.502 165.524C668.19 166.633 667.652 167.569 666.89 168.332C666.127 169.095 665.104 169.667 663.822 170.048C662.574 170.429 661.014 170.62 659.142 170.62H658.934V166.824C660.91 166.824 662.314 166.46 663.146 165.732C664.012 165.039 664.446 163.687 664.446 161.676V153.668C664.446 151.38 664.74 149.612 665.33 148.364C665.954 147.116 666.82 146.145 667.93 145.452C666.82 144.759 665.954 143.788 665.33 142.54C664.74 141.292 664.446 139.524 664.446 137.236V129.228C664.446 127.217 664.012 125.865 663.146 125.172C662.314 124.444 660.91 124.08 658.934 124.08V120.284H659.142C661.014 120.284 662.574 120.492 663.822 120.908C665.104 121.289 666.127 121.861 666.89 122.624C667.652 123.352 668.19 124.271 668.502 125.38C668.814 126.489 668.97 127.755 668.97 129.176V138.536C668.97 139.16 669.056 139.784 669.23 140.408C669.438 140.997 669.732 141.535 670.114 142.02C670.53 142.471 671.032 142.852 671.622 143.164C672.211 143.441 672.922 143.58 673.754 143.58V147.324Z" fill="#1F1E1E"/>
<path d="M793.332 198.36H803.7L805.94 186.648H811.316L809.076 198.36H814.708V203.096H808.116L805.94 214.552H814.708V219.288H805.044L802.804 231H797.428L799.668 219.288H789.3L787.06 231H781.684L783.924 219.288H778.292V214.552H784.82L786.996 203.096H778.292V198.36H787.956L790.196 186.648H795.572L793.332 198.36ZM790.196 214.552H800.564L802.804 203.096H792.436L790.196 214.552Z" fill="#1F1E1E"/>
</g>
<defs>
<clipPath id="clip0_10_11">
<rect width="900" height="600" fill="white"/>
</clipPath>
</defs>
</svg>
